<svg version="1.1" id="Layer_1" xmlns="http://www.w3.org/2000/svg" x="0" y="0" viewBox="0 0 684.7 417.6" xml:space="preserve"><style>.st0,.st1,.st2,.st3,.st4,.st5{fill-rule:evenodd;clip-rule:evenodd;fill:#9fb2d9}.st1,.st2,.st3,.st4,.st5{fill:#e1e8f6}.st2,.st3,.st4,.st5{fill:#b4c5e6}.st3,.st4,.st5{fill:#c0cdea}.st4,.st5{fill:#00000f}.st5{fill:#3b405f}.st6{fill:#00000f}.st7{fill:#3b405f}.st8{fill-rule:evenodd;clip-rule:evenodd;fill:#101537}.st10{fill:#fff}.st11{fill:#e4e1e8}.st12,.st13,.st16{fill-rule:evenodd;clip-rule:evenodd;fill:#d64c47}.st13,.st16{fill:#fff}.st16{fill:#070725}.st17{fill:#101537}.st20{fill-rule:evenodd;clip-rule:evenodd;fill:#e4e1e8}.st21{fill:#070725}.st22{fill:#aeabba}.st24,.st25,.st33{fill-rule:evenodd;clip-rule:evenodd;fill:#ed7862}.st25,.st33{fill:#f5ac83}.st33{fill:#05a677}</style><path class="st0" d="M373.4 37.2c.1-.5-.3-1-.8-1-.5-.1-1 .3-1 .8V39.4h-2.1c-.5.1-.9.5-.8 1 0 .4.4.8.8.8h2.1v2.2c.1.5.5.9 1 .8.4 0 .8-.4.8-.8v-2.2h2.1c.5.1 1-.3 1-.8.1-.5-.3-1-.8-1H373.4v-2.2z"/><path class="st1" d="M142.3 291.7h-60c-32.4.1-58.6 26.3-58.7 58.7.1 32.4 26.3 58.6 58.7 58.7h507.4c52.3 0 95.1-42.8 95.1-95.1s-42.8-95.1-95.1-95.1c-22.2-.1-40.1-18-40.2-40.2.1-22.2 18-40.1 40.2-40.2H638c23.1-.1 41.7-18.7 41.8-41.8 0-23-18.7-41.6-41.8-41.7h-61.2c-9 0-16.2-7.3-16.3-16.3 0-9 7.3-16.2 16.3-16.3h10.8c6.2 0 11.2-5 11.2-11.2 0-6.2-5-11.2-11.2-11.2h-70.8c-14.9 0-16.6 17.6-54.2 17.6h-87.3c-8.1 0-14.6 6.6-14.6 14.7s6.6 14.6 14.6 14.7h14.1c11.7 0 21.2 9.5 21.2 21.2s-9.5 21.2-21.2 21.2H347c-57.2 0-65.3 14.9-75.3 44.7s-62 32.1-62 32.1h-71.2c-17.7 0-32 14.3-32 32s14.3 32 32 32h3.7c17 0 30.7 13.8 30.8 30.8 0 16.9-13.7 30.7-30.7 30.7zM619.2 22.5c-6.2 0-11.2-5-11.2-11.2C607.9 5 613 0 619.2 0c6.2 0 11.2 5 11.2 11.2 0 6.2-5 11.3-11.2 11.3z"/><path class="st0" d="M214.2 351.8s-21.7-11.2-17.7-38.6-12.8-36.1-17.1-44.3 5.3-21.3 4.2-32.9-14.4-14.6-8.2-30.4 1-21.8-7.2-38.8 3.9-42.8 9.7-42.7-1.3 6.2 3.8 17.5 26.5 14.7 33.2 24.1-5.1 21.9 2.6 34.6 30.4 8.8 36.5 21.1-8.3 27.1-4.2 40.1c4.2 12.9 19.6 20.3 26 30.6s18.6 30.3-1.2 54-60.4 5.7-60.4 5.7z"/><path class="st2" d="M175.6 147.6c-.2-.7.2-1.5.9-1.8.7-.2 1.4.1 1.7.8l89.7 232.9-3.4-.9-88.9-231z"/><path class="st2" d="M196.2 324c-.1-1.1-.2-2.2-.2-3.4l58.9 33.1-5.2-13.5c0-.1 0-.1-.1-.2l-2.7-7-49.9-28c0-1.1 0-2.2-.1-3.3l48.4 27.2-4.7-12.2-46.1-25.9c-.6-1.5-1.2-3-2-4.4l46.5 26.1-2.3-6.1c0-.1-.1-.1-.1-.2l-10.2-26.6-46.1-25.9c.3-.9.6-1.8.8-2.8l43.7 24.6-5.1-13.3-36.3-20.4c.2-1 .3-2 .3-3.1l34.4 19.4-3.8-10s0-.1-.1-.1L203 219l-27-15.1c.3-.9.6-1.9.9-2.7l24.5 13.8-9.8-25.3s0-.1-.1-.1l-16.1-41.8c-.2-.7.2-1.5.9-1.8.7-.2 1.4.1 1.7.8l14.6 38 8.4-28.5c.9.4 1.7.9 2.6 1.3l-9.2 31.6 11 28.5v.1l10.2 26.4 16-34.4c.9.3 1.8.6 2.7.8L217 247.7l3.9 10.1 21.1-45c.9.3 1.8.6 2.7 1l-22.1 47 .3.2c.7.4.9 1.2.5 1.9-.1.2-.3.4-.4.5l5.7 14.8s0 .1.1.1l9.2 24 15.7-33.3c.6.8 1.3 1.7 2 2.5L239.5 306l2.4 6.2 17.4-37c.7.7 1.4 1.4 2.2 2l-18.2 38.5 6.1 15.8v.1l1.7 4.4 22.2-47.3c.7.8 1.3 1.6 1.9 2.5l-22.8 48.5 6.4 16.6v.1c-1.1.4-2.2.6-3.4.9L196.2 324z"/><path class="st3" d="M204.1 409.3c-6-4.6-12.1-6.8-15.3-9.8-6.5-6-2.1-20.9-6.8-30.9s-17.7-8.5-17.1-24.8-6.2-19.9-19-32.5-10.2-39.8-5-41.5.9 6 9 14.5 28.6 4.7 37.6 11 2.5 21.3 13.4 30.3 30.2-1.9 39.6 7.3 1.2 27.1 9.1 37.4 24.1 11.9 33.3 19.2c5.2 4.1 12.9 10.3 16.9 19.9l-95.7-.1z"/><path class="st1" d="M247.5 409.3l-13-15.1-49.8-8.5c0-.9-.1-1.8-.1-2.8l47.2 8-8.9-10.3-39.3-6.7c-.2-1-.4-1.9-.7-2.9l37.2 6.3-6.7-7.8-.1-.1-19.3-22.3-29.1-5c0-1 0-1.9-.1-2.8l26.5 4.5-17-19.6-.1-.1-27.9-32.4c-.4-.6-.2-1.5.4-1.9.5-.3 1.1-.3 1.6.1l25.4 29.5L172 291l2.7.4 1.9 31.4 19.1 22.2.1.1 17.6 20.5 3.4-36.1 2.7-.1-3.6 39.1 6.7 7.8 4.6-47.3h2.7l-4.8 49.4.4.1c.7.1 1.2.8 1.1 1.5 0 .2-.1.4-.2.6l9.9 11.5.1.1 14.8 17.2-3.7-.1zm5 0l3.2-33.6c.8.6 1.7 1.1 2.5 1.6l-3.1 32h-2.6zm7.3 0l2.9-29.8c.9.4 1.7.8 2.6 1.1l-2.8 28.6h-2.7zm17.7 0l2.1-22.2c.9.5 1.7 1.1 2.5 1.6l-2 20.5-2.6.1z"/><path class="st4" d="M22.9 417.6h-5.5c-2.3 0-4.2-1.8-4.2-4.1s1.9-4.1 4.1-4.1h5.5c2.3 0 4.1 1.9 4.1 4.1.1 2.2-1.7 4.1-4 4.1zM36.2 417.6h599.3c2.3 0 4.1-1.9 4.1-4.1 0-2.3-1.9-4.1-4.1-4.1H36.2c-2.3 0-4.1 1.9-4.1 4.1-.1 2.2 1.8 4.1 4.1 4.1z"/><path class="st0" d="M662.7 229.2c0-.6-.5-1.1-1.1-1.1s-1.1.5-1.1 1.1v2.7h-2.7c-.6 0-1.1.5-1.1 1.1 0 .6.5 1.1 1.1 1.1h2.7v2.7c0 .6.5 1.1 1.1 1.1s1.1-.5 1.1-1.1v-2.7h2.7c.6 0 1.1-.5 1.1-1.1 0-.6-.5-1.1-1.1-1.1h-2.7v-2.7z"/><path class="st4" d="M416.3 215.3h-68c-2.5 0-4.5 2-4.5 4.5s2 4.5 4.5 4.5h68c2.5 0 4.5-2 4.5-4.5s-2-4.5-4.5-4.5z"/><path class="st5" d="M414 183.3h-31.5c-.3 0-.5.2-.5.5l-5.6 40c0 .2.1.4.3.5h43.1c.2 0 .4-.2.4-.4v-.1l-5.6-40c-.2-.3-.4-.5-.6-.5z"/><path class="st5" d="M432.8 215.3h-68c-2.5 0-4.5 2-4.5 4.5s2 4.5 4.5 4.5h68c2.5 0 4.5-2 4.5-4.5s-2-4.5-4.5-4.5z"/><path class="st6" d="M316.3 95.1h150.8c1.3 0 2.3 1 2.3 2.3v100.8c0 1.3-1 2.3-2.3 2.3H316.3c-1.3 0-2.3-1-2.3-2.3V97.4c-.1-1.3 1-2.3 2.3-2.3z"/><path class="st7" d="M323.6 95.1h150.8c1.3 0 2.3 1 2.3 2.3v100.9c0 1.3-1 2.3-2.3 2.3H323.6c-1.3 0-2.3-1-2.3-2.3V97.4c0-1.3 1.1-2.3 2.3-2.3z"/><path class="st8" d="M473.2 96.6H324.9c-.8 0-1.5.7-1.5 1.5V189c0 .6.4 1 1 1h149.4c.6 0 1-.4 1-1V98.1c0-.8-.7-1.5-1.6-1.5z"/><path fill="#f8bd7a" d="M327.7 100.9h142.6v84.7H327.7z"/><path class="st8" d="M385.8 204.7l-1.5 10.6h-6.8l2.1-14.7h37.3l.5 3.7h-31c-.3-.1-.5.1-.6.4z"/><path class="st10" d="M327.7 100.9h143.1v4.9H327.7z"/><path class="st11" d="M328.6 102h36v2.8h-36z"/><path class="st12" d="M362.8 104c.3 0 .6-.3.6-.6s-.3-.6-.6-.6-.6.3-.6.6.3.6.6.6zM361 104c.3 0 .6-.3.6-.6s-.3-.6-.6-.6-.6.3-.6.6.2.6.6.6zM359.1 104c.3 0 .6-.3.6-.6s-.3-.6-.6-.6-.6.3-.6.6.3.6.6.6z"/><path class="st11" d="M366.3 102h36v2.8h-36z"/><path class="st12" d="M400.5 104c.3 0 .6-.4.5-.7 0-.3-.3-.5-.5-.5-.3 0-.7.2-.7.5s.2.7.5.7h.2zM398.6 104c.3 0 .6-.4.5-.7 0-.3-.3-.5-.5-.5-.3 0-.7.2-.7.5s.2.7.5.7h.2zM396.8 104c.3 0 .6-.3.6-.6s-.3-.6-.6-.6-.6.3-.6.6c-.1.3.2.6.6.6z"/><path class="st13" d="M348.2 175.7h101.7c.4 0 .8.3.8.8 0 .4-.3.8-.8.8H348.2c-.4 0-.8-.3-.8-.8s.4-.8.8-.8z"/><text transform="translate(342.72 167.96)" class="st10" font-size="72" font-family="ArialMT">404</text><path class="st8" d="M398 210.8h88.4c5 0 9 4 9 9s-4 9-9 9H398c-5 0-9-4-9-9s4-9 9-9z"/><path class="st16" d="M381.1 210.8h41c5 0 9 4 9 9s-4 9-9 9h-41c-5 0-9-4-9-9s4-9 9-9z"/><path class="st17" d="M335.4 225.5h274.2c2.8 0 5 2.3 5 5V254c0 2.8-2.3 5-5 5H335.4c-2.8 0-5-2.3-5-5v-23.5c0-2.8 2.3-5 5-5z"/><path class="st4" d="M335.3 225.5h274.5c2.7.1 4.9 2.3 4.9 5v9.2c0 2.7-2.2 4.9-4.9 5H335.3c-2.7-.1-4.9-2.3-4.9-5v-9.2c0-2.7 2.2-5 4.9-5z"/><path class="st6" d="M260.1 225.9H336c2.9 0 5.2 2.3 5.2 5.2v172.8c0 2.9-2.3 5.2-5.2 5.2h-75.9c-2.9 0-5.2-2.3-5.2-5.2V231.1c0-2.9 2.3-5.2 5.2-5.2z"/><path class="st17" d="M335 225.9h67.9c2.6 0 4.7 2.1 4.7 4.7v173.9c0 2.6-2.1 4.7-4.7 4.7H335c-2.6 0-4.7-2.1-4.7-4.7V230.6c.1-2.6 2.1-4.7 4.7-4.7z"/><path d="M332.1 219.8h294.3c.9 0 1.7.8 1.7 1.7v8c0 .9-.8 1.7-1.7 1.7H332.1c-.9 0-1.7-.8-1.7-1.7v-8c0-1 .8-1.7 1.7-1.7z" fill="#d58750"/><path d="M247.7 219.8h84c.9 0 1.7.8 1.7 1.7v8c0 .9-.8 1.7-1.7 1.7h-84c-.9 0-1.7-.8-1.7-1.7v-8c0-1 .8-1.7 1.7-1.7z" fill="#b56b41"/><path class="st10" d="M340 237h57.9c2.1 0 3.9 1.7 3.9 3.9v44.9c0 2.1-1.7 3.9-3.9 3.9H340c-2.1 0-3.9-1.7-3.9-3.9v-44.9c0-2.2 1.8-3.9 3.9-3.9z"/><path class="st20" d="M401.8 286.3h-57.1c-1.5 0-2.8-.8-3.5-2.2-.3-.5-.4-1.1-.4-1.7v-44.9-.6h-.8c-2.1 0-3.9 1.7-3.9 3.9v44.9c0 2.1 1.7 3.9 3.9 3.9h57.9c1.9 0 3.6-1.4 3.9-3.3z"/><path class="st21" d="M355 240.1h28c.8 0 1.5.7 1.5 1.5v.5c0 .8-.7 1.5-1.5 1.5h-28c-.8 0-1.5-.7-1.5-1.5v-.5c0-.9.7-1.5 1.5-1.5z"/><path class="st10" d="M340 292.4h57.9c2.1 0 3.9 1.7 3.9 3.9v44.9c0 2.1-1.7 3.9-3.9 3.9H340c-2.1 0-3.9-1.7-3.9-3.9v-44.9c0-2.1 1.8-3.9 3.9-3.9z"/><path class="st20" d="M401.8 341.8h-57.1c-1.5 0-2.8-.8-3.5-2.2-.3-.5-.4-1.1-.4-1.7V293v-.6h-.8c-2.1 0-3.9 1.7-3.9 3.9v44.9c0 2.1 1.7 3.9 3.9 3.9h57.9c2 0 3.6-1.4 3.9-3.3z"/><path class="st21" d="M355 295.5h28c.8 0 1.5.7 1.5 1.5v.5c0 .8-.7 1.5-1.5 1.5h-28c-.8 0-1.5-.7-1.5-1.5v-.5c0-.8.7-1.5 1.5-1.5z"/><path class="st10" d="M340 347.9h57.9c2.1 0 3.9 1.7 3.9 3.9v44.9c0 2.1-1.7 3.9-3.9 3.9H340c-2.1 0-3.9-1.7-3.9-3.9v-44.9c0-2.2 1.8-3.9 3.9-3.9z"/><path class="st20" d="M401.8 397.2h-57.1c-1.5 0-2.8-.8-3.5-2.2-.3-.5-.4-1.1-.4-1.7v-44.9-.6h-.8c-2.1 0-3.9 1.8-3.9 3.9v44.9c0 2.1 1.7 3.9 3.9 3.9h57.9c2 0 3.6-1.4 3.9-3.3z"/><path class="st21" d="M355 351h28c.8 0 1.5.7 1.5 1.5v.5c0 .8-.7 1.5-1.5 1.5h-28c-.8 0-1.5-.7-1.5-1.5v-.5c0-.9.7-1.5 1.5-1.5z"/><path class="st22" d="M558.1 225.9h10.5c.3 0 .5.2.5.5v184.5c0 .3-.2.5-.5.5h-10.5c-.3 0-.5-.2-.5-.5V226.4c.1-.3.3-.5.5-.5z"/><path class="st10" d="M565.2 225.9h3.3c1.3 0 2.3 1 2.3 2.3V409c0 1.3-1 2.3-2.3 2.3h-3.3c-1.3 0-2.3-1-2.3-2.3V228.2c0-1.3 1-2.3 2.3-2.3z"/><path class="st22" d="M607.2 225.9h10.5c.3 0 .5.2.5.5v184.5c0 .3-.2.5-.5.5h-10.5c-.3 0-.5-.2-.5-.5V226.4c0-.3.2-.5.5-.5z"/><path class="st10" d="M614.3 225.9h3.3c1.3 0 2.3 1 2.3 2.3V409c0 1.3-1 2.3-2.3 2.3h-3.3c-1.3 0-2.3-1-2.3-2.3V228.2c-.1-1.3 1-2.3 2.3-2.3z"/><path d="M455.5 219.8h170.9c.9 0 1.7.8 1.7 1.7v8c0 .9-.8 1.7-1.7 1.7H466.7c-3.3-4.3-7-8.1-11.2-11.4z" fill-rule="evenodd" clip-rule="evenodd" fill="#b56b41"/><path class="st24" d="M517.6 170.2l2.2 3.6s.8 4.4-.4 7.3 14.2 6.2 14.2 6.2l12-9.7 2.7-3.3s-5.6-6.1-6-8.8-24.7 4.7-24.7 4.7z"/><path class="st25" d="M490.9 204.5s-8.1 6.5-10.9 7-15.1-5.2-17.6-5.8-8-.7-11.9-.7-8 1.5-10.1 5.8h8.3c2.2 0 9.8 6.1 17 11.1s13.1 9.1 17.9 8.6 21.4-12.9 21.4-12.9l-14.1-13.1z"/><path class="st24" d="M465.6 221.9c7.3 5 13.1 9.1 17.9 8.6s21.4-12.9 21.4-12.9l-14-13.1s-1.9 1.5-4.1 3.1c5.9 9.4 3.2 13.4-3.7 16.2-5.5 2.2-19.6-5.5-28.5-9.8 3.1 2.2 7.1 5.2 11 7.9z"/><path class="st16" d="M557 280.9s-41.9-.4-47 .1c-5.1.5-10.2 5.9-9.3 14.3s12.6 74 12.6 74c.5.4 1.1.6 1.7.8.9.2 8.4 1.4 8.4 1.4l.5-6.1-4.4-63.8 38.6-7-1.1-13.7z"/><path class="st12" d="M523.9 365.4c.6.2 1.1.7 1.3 1.4.6 3.1 1 6.2 1.1 9.4-.1 1-2.7 3-7.1 4.9s-21.2 6.8-21.2 6.8l-.2-.6c-.5-.3-.9-.8-1.1-1.4-.4-1.6-.1-3.2.7-4.6.9-1.3 6.3-5 7.3-5.8s5.9-7.6 6.3-8.1c1.7-1.4 4.2-1.6 6.1-.4 3 1.6 6.5 1 6.8-1.6z"/><path class="st13" d="M497.7 387.2s16.8-6.2 20.5-7.5c2.9-1.2 5.6-2.8 8-4.8.3.2.6.4.7.8.1.5.2 2.2.3 2.6 0 1.2-.8 2.4-1.9 2.8-1.8.8-25.3 9-26.4 9.4s-1.5-2.5-1.5-2.5-.1-.6.3-.8z"/><path d="M582.9 254.9s-111.9 12.9-118 14.3-11.3 8.6-8.9 18.5 27.4 89.7 27.4 89.7c.7.4 1.4.6 2.1.7 1.1.1 10.3.4 10.3.4l3.6-3.7-20-71.2 81.8-4.1c22.9-3.8 26-31.7 21.7-44.6z" fill-rule="evenodd" clip-rule="evenodd" fill="#181d3b"/><path d="M504.2 263.4s8.9 6.6 14.3 4.5 31.2-46.8 31.2-46.8l-12.4-44.7c-6.1.4-12.2 1.2-18.1 2.5l-1.9 1.7s-7.3 1.2-11.4 5.9-17.7 16.7-18.2 17.7 11.8 14.6 15 16.7c.8.3 1.7.1 2.4-.4l1.5-1.2s3.3 17.2 3.3 22.4v5.1s-1.7 13.2-3.1 14.4-2.6 2.2-2.6 2.2z" fill-rule="evenodd" clip-rule="evenodd" fill="#f8bd7a"/><path class="st13" d="M544.2 271.9c2.1 0 3.8-1.7 3.8-3.8s-1.7-3.8-3.8-3.8h-33.1c-7.7-.1-14.3-5.4-16-12.9-2.4 1-4.7 2.1-6.9 3.3 3.1 10.1 12.4 17 22.9 17.1h33.1z"/><path class="st21" d="M544.4 301.6h9.5v78.2h-9.5z"/><path class="st6" d="M531.7 275.4h9.3v21.2h-9.3zM595.8 275.4h9.3v21.2h-9.3z"/><path class="st7" d="M544.4 299.8h9.5c3 0 5.5 2.5 5.5 5.5v10.2c0 3-2.5 5.5-5.5 5.5h-9.5c-3 0-5.5-2.5-5.5-5.5v-10.2c0-3 2.4-5.5 5.5-5.5z"/><path class="st21" d="M536.8 298.1h24.6c.9 0 1.6.7 1.6 1.6v12.8c0 .9-.7 1.6-1.6 1.6h-24.6c-.9 0-1.6-.7-1.6-1.6v-12.8c0-.9.7-1.6 1.6-1.6z"/><path d="M476.1 292.1h77.1c2.9 0 5.3 2.4 5.3 5.3v6c0 2.9-2.4 5.3-5.3 5.3h-77.1c-2.9 0-5.3-2.4-5.3-5.3v-6c0-3 2.4-5.3 5.3-5.3z" fill="#ee5050"/><path d="M532.2 292.1h77.1c2.9 0 5.3 2.4 5.3 5.3v6c0 2.9-2.4 5.3-5.3 5.3h-77.1c-2.9 0-5.3-2.4-5.3-5.3v-6c0-2.9 2.4-5.3 5.3-5.3z" fill="#d95050"/><path class="st7" d="M544.4 374.8h9.5c3 0 5.5 2.5 5.5 5.5v10.2c0 3-2.5 5.5-5.5 5.5h-9.5c-3 0-5.5-2.5-5.5-5.5v-10.2c0-3 2.4-5.5 5.5-5.5z"/><path class="st21" d="M537.5 384.9h23.2c1.3 0 2.3 1 2.3 2.3v18.5c0 1.3-1 2.3-2.3 2.3h-23.2c-1.3 0-2.3-1-2.3-2.3v-18.5c0-1.3 1-2.3 2.3-2.3z"/><path d="M574.4 402.3c0 3.8-3.1 6.8-6.8 6.8h-36.8c-3.8 0-6.8-3.1-6.8-6.8 0-3.8 3.1-6.8 6.8-6.8h36.8c3.7 0 6.7 3 6.8 6.8z" fill-rule="evenodd" clip-rule="evenodd" fill="#707386"/><path class="st8" d="M610.2 409.1c0 3.8-3.1 6.8-6.8 6.8h-93.6c-3.8 0-6.8-3.1-6.8-6.8 0-3.8 3.1-6.8 6.8-6.8h93.6c3.7 0 6.8 3 6.8 6.8z"/><path class="st4" d="M551.6 409.1c0 3.8-3.1 6.8-6.8 6.8h-49.9c-3.8 0-6.8-3.1-6.8-6.8 0-3.8 3.1-6.8 6.8-6.8h49.9c3.7 0 6.8 3 6.8 6.8z"/><path class="st13" d="M530.3 246.8c2.1-.1 3.8 1.5 3.9 3.6.1 2.1-1.5 3.8-3.6 3.9h-33.5c-9.1 0-16.4 7.4-16.4 16.4v29.8c.1 2.1-1.5 3.8-3.6 3.9-2.1.1-3.8-1.5-3.9-3.6v-30.2c0-13.2 10.7-23.9 24-24h33.1z"/><path d="M603.7 206.8c-.1-22.7-18.4-41.1-41.1-41.1h-5.5c-22.7.1-41.1 18.4-41.1 41.1V268c0 5.8 4.7 10.5 10.6 10.6h66.6c5.8 0 10.5-4.7 10.6-10.6v-61.2z" fill-rule="evenodd" clip-rule="evenodd" fill="#ee5050"/><path d="M614.7 206.8c-.1-22.7-18.4-41.1-41.1-41.1h-5.5c-22.7.1-41.1 18.4-41.1 41.1V268c0 5.8 4.7 10.6 10.6 10.6h66.6c5.8 0 10.5-4.7 10.6-10.6v-61.2z" fill-rule="evenodd" clip-rule="evenodd" fill="#d95050"/><path class="st12" d="M498.5 371.9c.9 0 1.8.5 2.3 1.2.9 1.2 4.1 9.5 4.3 10.7s-3.3 4.4-9.7 7.9-31.2 14.5-31.2 14.5l-.5-.7c-.8-.1-1.6-.6-2.1-1.3-1-1.7-1.1-3.9-.2-5.7 1.1-1.8 8.5-7.9 9.9-9.1s7.1-10.8 7.6-11.5 4.1-3.4 9.4-2.3 10.5-.6 10.2-3.7z"/><path class="st13" d="M463.8 405.6s24.5-12.4 29.8-15c5.4-2.6 11.2-8.1 11.2-8.1s1 .1 1.3.7c.4 1 .8 1.9 1.1 2.9.2.4.4 2.4-2.2 3.9s-36.9 18.3-38.5 19-3-2.5-3-2.5-.3-.6.3-.9z"/><path class="st25" d="M510.5 119.8l4-.9c9.5-2.2 19 3.7 21.3 13.2l4.4 19c2.2 9.5-3.7 19-13.2 21.3l-4 .9c-9.5 2.2-19-3.7-21.3-13.2l-4.4-19c-2.3-9.5 3.6-19 13.2-21.3z"/><path class="st24" d="M536.3 134.3l3.9 16.8c2.2 9.5-3.7 19-13.2 21.3l-4 .9c-3.8.9-7.8.5-11.3-1.1.5.2 3.8 1.5 4.6-1 .8-2.7-3.8-11.2-3.8-11.2-.2-.4-.1-.8.1-1.1 1.9-3.3 2.5-7.1 1.8-10.9-1.1-5.7 6.2-9.7 6.2-9.7l-17.1 4.6v3.5c-1.2-2.3-3.5-3.9-6.1-4.3l-.2-1c-1-4.3-.4-8.8 1.8-12.7 5.7.7 24.3 3.1 37.3 5.9z"/><path class="st8" d="M504.7 151.7s-1.5-.2-2.1-2.4-.7-2.9-.7-2.9c-1.3-1.9-2.2-4.1-2.6-6.4 0 0-10.1-1.4-12.1-10.8s6.7-19.2 8-20.2 6.7-2.8 13.4.2c0 0 1.2.7 3.4-.2 2.2-.9 14.6-4.4 20.6-4.6s9.8 6 12.7 13.5c.3-1.8 1.6-3.3 3.4-3.7 3-.6 1.4 5-.8 7 0 0 5.1 2.7 6.1 8.1 1 5.5-.9 29.8-5.5 34.6s-16.2 6.9-19.9 7.8-11-3-14-13.1c0 0 1.5-5.1.2-9.2s-2.3-7.2-3.9-7.8c-1.6-.5-5.4 3.5-5.7 5.3-.1 1.4 0 2.9.4 4.3-.2.4-.6.5-.9.5z"/><path class="st16" d="M504.7 151.7s-1.5-.2-2.1-2.4-.7-2.9-.7-2.9c-1.3-1.9-2.2-4.1-2.6-6.4 0 0-10.1-1.4-12.1-10.8s6.7-19.2 8-20.2c0 0-9.5 10.4 1 15.7 10.5 5.3 26 8.7 36.2 8.1s17.4-18.3 17.4-18.3c1.2 1.1-.2 5.2-2 6.7 0 0 5.1 2.7 6.1 8.1 1 5.5-.9 29.8-5.5 34.6s-16.2 6.9-19.9 7.8-11-3-14-13.1c0 0 1.5-5.1.2-9.2s-2.3-7.2-3.9-7.8c-1.6-.5-5.4 3.5-5.7 5.3-.1 1.4 0 2.9.4 4.3-.1.4-.4.5-.8.5z"/><path class="st0" d="M644.6 306.8c0-.6-.5-1.1-1.1-1.1s-1.1.5-1.1 1.1v2.7h-2.7c-.6.1-1.1.6-1 1.3.1.6.5 1 1 1h2.7v2.7c0 .6.5 1.1 1.1 1.1s1.1-.5 1.1-1.1v-2.7h2.7c.6.1 1.2-.4 1.3-1 .1-.6-.4-1.2-1-1.3H644.7v-2.7zM576.1 70.3c.1-.6-.4-1.2-1-1.3-.6-.1-1.2.4-1.3 1v3h-2.7c-.6 0-1.1.5-1.1 1.1 0 .6.5 1.1 1.1 1.1h2.7V78c.1.6.6 1.1 1.3 1 .6-.1 1-.5 1-1v-2.7h2.7c.6 0 1.1-.5 1.1-1.1 0-.6-.5-1.1-1.1-1.1h-2.7v-2.8zM446.9 27.6c0-.6-.5-1.1-1.1-1.1-.6 0-1.1.5-1.1 1.1v2.7H442c-.6 0-1.1.5-1.1 1.1 0 .6.5 1.1 1.1 1.1h2.7v2.7c0 .6.5 1.1 1.1 1.1.6 0 1.1-.5 1.1-1.1v-2.7h2.7c.6 0 1.1-.5 1.1-1.1 0-.6-.5-1.1-1.1-1.1h-2.7v-2.7zM127.6 255.1c-.1-.6-.6-1.1-1.3-1-.6.1-1 .5-1 1v2.7h-2.7c-.6.1-1.1.6-1 1.3.1.6.5 1 1 1h2.6v2.7c.1.6.6 1.1 1.3 1 .6-.1 1-.5 1-1v-2.7h2.7c.6-.1 1.1-.6 1-1.3-.1-.6-.5-1-1-1h-2.7l.1-2.7zM238.8 107.8c0-.6-.5-1.1-1.1-1.1-.6 0-1.1.5-1.1 1.1v2.7h-2.7c-.6 0-1.1.5-1.1 1.1 0 .6.5 1.1 1.1 1.1h2.7v2.7c0 .6.5 1.1 1.1 1.1.6 0 1.1-.5 1.1-1.1v-2.7h2.7c.6 0 1.1-.5 1.1-1.1 0-.6-.5-1.1-1.1-1.1h-2.7v-2.7zM108.2 363.7c0-.6-.5-1.1-1.1-1.1-.6 0-1.1.5-1.1 1.1v2.7h-2.7c-.6.1-1.1.6-1 1.3.1.6.5 1 1 1h2.7v2.7c0 .6.5 1.1 1.1 1.1.6 0 1.1-.5 1.1-1.1v-2.7h2.7c.6-.1 1.1-.6 1-1.3-.1-.6-.5-1-1-1h-2.7v-2.7zM6.1 281c0-.6-.5-1.1-1.1-1.1-.6 0-1.1.5-1.1 1.1v2.7H1.1c-.6-.1-1.2.4-1.3 1-.1.6.4 1.2 1 1.3H3.7v2.7c0 .6.5 1.1 1.1 1.1.6 0 1.1-.5 1.1-1.1V286h2.7c.6-.1 1.1-.6 1-1.3-.1-.6-.5-1-1-1H6.1V281z"/><path class="st33" d="M282.8 276.6c16.2-8.6 20.3 10.1 14 25.6s-38.6 67.6-40.3 88.3c-.6 8-2.1 7.1-3.4 1.5-6.3-28 7.5-103.6 29.7-115.4z"/><path d="M248.6 205.6c-18.6-16.7-30.1 6.7-26.9 29.2 3.2 22.6 28.7 102.1 24.1 130-1.8 10.8.5 10.1 4 3.1 17.6-34.9 24.3-139.3-1.2-162.3z" fill-rule="evenodd" clip-rule="evenodd" fill="#4a9075"/><path d="M245.4 372.6c.4 1 1.3.5 2.5-1.2 19.3-64.4-10.8-160.6-10.9-160.9-.2-.5-.7-.8-1.3-.7-.5.2-.8.7-.7 1.3.1.2 30.6 97.8 10.4 161.5z" fill-rule="evenodd" clip-rule="evenodd" fill="#1b7154"/><path class="st33" d="M208.1 259.1c-18-7.8-20.8 12.5-12.8 28.5s46.8 68.9 50.3 90.8c1.4 8.5 2.9 7.4 3.8 1.3 4.4-30.4-16.6-109.8-41.3-120.6z"/><path class="st5" d="M233.4 372.6h34.5l9 8.1-7.4 28.4h-37.8l-7.3-28.4z"/><path class="st7" d="M224.4 362H277c1.6 0 2.9 1.3 2.9 2.9v13c0 1.6-1.3 2.9-2.9 2.9h-52.6c-1.6 0-2.9-1.3-2.9-2.9v-13c0-1.6 1.3-2.9 2.9-2.9z"/><path class="st8" d="M276.9 380.7l-1.5 5.9h-49.5l-1.5-5.9z"/></svg>
